<svg width="15" height="15" viewBox="0 0 15 15" fill="none" xmlns="http://www.w3.org/2000/svg">
<path d="M13.4375 2.5H12.0833V3.33333H13.3333V12.5H1.66666V3.33333H2.91666V2.5H1.5625C1.46509 2.50163 1.36897 2.52243 1.27961 2.56121C1.19024 2.6 1.1094 2.656 1.04169 2.72604C0.973975 2.79607 0.920723 2.87876 0.884973 2.96938C0.849222 3.05999 0.831673 3.15677 0.833329 3.25417V12.5792C0.831673 12.6766 0.849222 12.7733 0.884973 12.864C0.920723 12.9546 0.973975 13.0373 1.04169 13.1073C1.1094 13.1773 1.19024 13.2333 1.27961 13.2721C1.36897 13.3109 1.46509 13.3317 1.5625 13.3333H13.4375C13.5349 13.3317 13.631 13.3109 13.7204 13.2721C13.8097 13.2333 13.8906 13.1773 13.9583 13.1073C14.026 13.0373 14.0793 12.9546 14.115 12.864C14.1508 12.7733 14.1683 12.6766 14.1667 12.5792V3.25417C14.1683 3.15677 14.1508 3.05999 14.115 2.96938C14.0793 2.87876 14.026 2.79607 13.9583 2.72604C13.8906 2.656 13.8097 2.6 13.7204 2.56121C13.631 2.52243 13.5349 2.50163 13.4375 2.5Z" fill="#808080"/>
<path d="M3.33334 5.83334H4.16668V6.66668H3.33334V5.83334Z" fill="#808080"/>
<path d="M5.83334 5.83334H6.66668V6.66668H5.83334V5.83334Z" fill="#808080"/>
<path d="M8.33334 5.83334H9.16668V6.66668H8.33334V5.83334Z" fill="#808080"/>
<path d="M10.8333 5.83334H11.6667V6.66668H10.8333V5.83334Z" fill="#808080"/>
<path d="M3.33334 7.91666H4.16668V8.74999H3.33334V7.91666Z" fill="#808080"/>
<path d="M5.83334 7.91666H6.66668V8.74999H5.83334V7.91666Z" fill="#808080"/>
<path d="M8.33334 7.91666H9.16668V8.74999H8.33334V7.91666Z" fill="#808080"/>
<path d="M10.8333 7.91666H11.6667V8.74999H10.8333V7.91666Z" fill="#808080"/>
<path d="M3.33334 10H4.16668V10.8333H3.33334V10Z" fill="#808080"/>
<path d="M5.83334 10H6.66668V10.8333H5.83334V10Z" fill="#808080"/>
<path d="M8.33334 10H9.16668V10.8333H8.33334V10Z" fill="#808080"/>
<path d="M10.8333 10H11.6667V10.8333H10.8333V10Z" fill="#808080"/>
<path d="M4.16667 4.16668C4.27717 4.16668 4.38315 4.12278 4.46129 4.04464C4.53943 3.9665 4.58333 3.86052 4.58333 3.75001V1.25001C4.58333 1.1395 4.53943 1.03352 4.46129 0.955382C4.38315 0.877242 4.27717 0.833344 4.16667 0.833344C4.05616 0.833344 3.95018 0.877242 3.87204 0.955382C3.7939 1.03352 3.75 1.1395 3.75 1.25001V3.75001C3.75 3.86052 3.7939 3.9665 3.87204 4.04464C3.95018 4.12278 4.05616 4.16668 4.16667 4.16668Z" fill="#808080"/>
<path d="M10.8333 4.16668C10.9438 4.16668 11.0498 4.12278 11.128 4.04464C11.2061 3.9665 11.25 3.86052 11.25 3.75001V1.25001C11.25 1.1395 11.2061 1.03352 11.128 0.955382C11.0498 0.877242 10.9438 0.833344 10.8333 0.833344C10.7228 0.833344 10.6168 0.877242 10.5387 0.955382C10.4606 1.03352 10.4167 1.1395 10.4167 1.25001V3.75001C10.4167 3.86052 10.4606 3.9665 10.5387 4.04464C10.6168 4.12278 10.7228 4.16668 10.8333 4.16668Z" fill="#808080"/>
<path d="M5.41666 2.5H9.58332V3.33333H5.41666V2.5Z" fill="#808080"/>
</svg>
