<svg width="15" height="15" viewBox="0 0 15 15" fill="none" xmlns="http://www.w3.org/2000/svg">
<path d="M1.02004 7.87874V2.51099H3.29254L3.40729 2.49749C5.51704 2.00549 6.91504 1.65074 7.61179 1.43099C8.53729 1.13924 8.88229 1.06799 9.51004 1.02599C9.97954 0.993735 10.5128 1.17449 10.7558 1.42199C10.89 1.55849 10.9905 1.83899 11.0303 2.27398C11.0385 2.3652 11.0711 2.45253 11.1247 2.52682C11.1783 2.60111 11.2508 2.65962 11.3348 2.69624C11.5215 2.77724 11.6768 2.90924 11.8065 3.10124C11.9265 3.27674 12.0045 3.60374 12.0188 4.07699C12.0213 4.16399 12.046 4.24891 12.0905 4.32372C12.1349 4.39853 12.1978 4.46075 12.273 4.50449C12.7095 4.75724 12.9255 5.04224 12.9705 5.37674C13.02 5.74649 12.9 6.16274 12.5858 6.63674C12.5121 6.7479 12.4846 6.88344 12.5092 7.01454C12.5339 7.14564 12.6087 7.26195 12.7178 7.33874C13.0185 7.55024 13.1835 7.84424 13.2248 8.26124C13.2908 8.92574 12.867 9.41699 11.9078 9.51524C11.0534 9.59973 10.1908 9.52781 9.36229 9.30299C9.2683 9.27842 9.16925 9.28122 9.0768 9.31104C8.98434 9.34085 8.90232 9.39646 8.8404 9.47131C8.77847 9.54615 8.73921 9.63713 8.72723 9.73354C8.71525 9.82994 8.73106 9.92776 8.77279 10.0155C9.14779 10.809 9.35629 11.4637 9.40504 11.9707C9.46879 12.6435 9.31354 13.131 8.95054 13.533C8.67529 13.8375 8.23504 14.0115 8.07004 13.9755C7.85254 13.929 7.71079 13.803 7.52629 13.362C7.41754 13.101 7.36504 12.879 7.27504 12.3607C7.18879 11.8687 7.14154 11.6467 7.04329 11.3557C6.74704 10.4737 6.02029 9.55949 5.04454 8.92874C4.36068 8.4872 3.61954 8.14148 2.84179 7.90124C2.7932 7.88626 2.74263 7.87867 2.69179 7.87874H1.02004ZM0.988538 1.48874C0.746288 1.48199 0.528788 1.53599 0.346538 1.66349C0.114038 1.82624 0.00453833 2.08274 0.00228833 2.37823L0.00453833 7.87049C-0.0209617 8.16299 0.0652883 8.43149 0.269288 8.63099C0.460538 8.81849 0.710288 8.90699 0.974288 8.90099H2.61304C3.27593 9.11221 3.90793 9.4103 4.49254 9.78749C5.27854 10.296 5.85754 11.025 6.07879 11.682C6.15454 11.9085 6.19504 12.096 6.27154 12.537C6.37504 13.1287 6.43954 13.404 6.58804 13.758C6.89554 14.4945 7.29904 14.8545 7.85554 14.9752C8.40304 15.0937 9.20029 14.778 9.70429 14.22C10.263 13.602 10.5098 12.8287 10.4183 11.8732C10.3793 11.4622 10.2653 11.0025 10.0778 10.4902C10.7181 10.5836 11.3675 10.5977 12.0113 10.5322C13.5165 10.3785 14.3618 9.39824 14.2388 8.15924C14.1848 7.62524 13.9913 7.17149 13.662 6.81524C13.9388 6.28199 14.049 5.75474 13.98 5.24024C13.9005 4.64774 13.5705 4.15424 13.0215 3.77099C12.9788 3.25124 12.8595 2.83649 12.648 2.52599C12.4814 2.27513 12.264 2.06204 12.0098 1.90049C11.9288 1.38749 11.7585 0.986235 11.4803 0.704235C11.019 0.234735 10.1948 -0.0450144 9.44179 0.00598526C8.72704 0.0539856 8.30404 0.140985 7.30654 0.455986C6.64879 0.663735 5.28679 1.00874 3.23404 1.48874H0.987788H0.988538ZM2.26429 8.11199C2.26409 8.17909 2.27714 8.24557 2.30268 8.30762C2.32822 8.36966 2.36575 8.42606 2.41313 8.47358C2.46051 8.5211 2.5168 8.5588 2.57877 8.58452C2.64075 8.61025 2.70719 8.62349 2.77429 8.62349C2.84126 8.62329 2.90754 8.6099 2.96934 8.58409C3.03114 8.55828 3.08726 8.52055 3.13447 8.47305C3.18169 8.42555 3.21909 8.36922 3.24454 8.30727C3.26999 8.24532 3.28299 8.17896 3.28279 8.11199V2.35349C3.28289 2.28651 3.26979 2.22017 3.24425 2.15826C3.21872 2.09635 3.18123 2.04007 3.13394 1.99264C3.08665 1.94521 3.03049 1.90756 2.96865 1.88184C2.90681 1.85612 2.84051 1.84283 2.77354 1.84274C2.70656 1.84283 2.64026 1.85612 2.57843 1.88184C2.51659 1.90756 2.46042 1.94521 2.41313 1.99264C2.36585 2.04007 2.32836 2.09635 2.30282 2.15826C2.27728 2.22017 2.26419 2.28651 2.26429 2.35349V8.11199Z" fill="#FF8585"/>
</svg>
