<svg width="15" height="15" viewBox="0 0 15 15" fill="none" xmlns="http://www.w3.org/2000/svg">
<path d="M1.02004 7.87877V2.51102H3.29254L3.40729 2.49752C5.51704 2.00552 6.91504 1.65077 7.61179 1.43102C8.53729 1.13927 8.88229 1.06802 9.51004 1.02602C9.97954 0.993766 10.5128 1.17452 10.7558 1.42202C10.89 1.55852 10.9905 1.83902 11.0303 2.27402C11.0385 2.36523 11.0711 2.45256 11.1247 2.52685C11.1783 2.60114 11.2508 2.65965 11.3348 2.69627C11.5215 2.77727 11.6768 2.90927 11.8065 3.10127C11.9265 3.27677 12.0045 3.60377 12.0188 4.07702C12.0213 4.16402 12.046 4.24894 12.0905 4.32375C12.1349 4.39856 12.1978 4.46078 12.273 4.50452C12.7095 4.75727 12.9255 5.04227 12.9705 5.37677C13.02 5.74652 12.9 6.16277 12.5858 6.63677C12.5121 6.74793 12.4846 6.88347 12.5092 7.01457C12.5339 7.14567 12.6087 7.26198 12.7178 7.33877C13.0185 7.55027 13.1835 7.84427 13.2248 8.26127C13.2908 8.92577 12.867 9.41702 11.9078 9.51527C11.0534 9.59976 10.1908 9.52784 9.36229 9.30302C9.2683 9.27845 9.16925 9.28125 9.0768 9.31107C8.98434 9.34088 8.90232 9.39649 8.8404 9.47134C8.77847 9.54619 8.73921 9.63716 8.72723 9.73357C8.71525 9.82997 8.73106 9.92779 8.77279 10.0155C9.14779 10.809 9.35629 11.4638 9.40504 11.9708C9.46879 12.6435 9.31354 13.131 8.95054 13.533C8.67529 13.8375 8.23504 14.0115 8.07004 13.9755C7.85254 13.929 7.71079 13.803 7.52629 13.362C7.41754 13.101 7.36504 12.879 7.27504 12.3608C7.18879 11.8688 7.14154 11.6468 7.04329 11.3558C6.74704 10.4738 6.02029 9.55952 5.04454 8.92877C4.36068 8.48723 3.61954 8.14151 2.84179 7.90127C2.7932 7.88629 2.74263 7.8787 2.69179 7.87877H1.02004ZM0.988538 1.48877C0.746288 1.48202 0.528788 1.53602 0.346538 1.66352C0.114038 1.82627 0.00453833 2.08277 0.00228833 2.37827L0.00453833 7.87052C-0.0209617 8.16302 0.0652883 8.43152 0.269288 8.63102C0.460538 8.81852 0.710288 8.90702 0.974288 8.90102H2.61304C3.27593 9.11224 3.90793 9.41033 4.49254 9.78752C5.27854 10.296 5.85754 11.025 6.07879 11.682C6.15454 11.9085 6.19504 12.096 6.27154 12.537C6.37504 13.1288 6.43954 13.404 6.58804 13.758C6.89554 14.4945 7.29904 14.8545 7.85554 14.9753C8.40304 15.0938 9.20029 14.778 9.70429 14.22C10.263 13.602 10.5098 12.8288 10.4183 11.8733C10.3793 11.4623 10.2653 11.0025 10.0778 10.4903C10.7181 10.5836 11.3675 10.5977 12.0113 10.5323C13.5165 10.3785 14.3618 9.39827 14.2388 8.15927C14.1848 7.62527 13.9913 7.17152 13.662 6.81527C13.9388 6.28202 14.049 5.75477 13.98 5.24027C13.9005 4.64777 13.5705 4.15427 13.0215 3.77102C12.9788 3.25127 12.8595 2.83652 12.648 2.52602C12.4814 2.27516 12.264 2.06207 12.0098 1.90052C11.9288 1.38752 11.7585 0.986265 11.4803 0.704266C11.019 0.234766 10.1948 -0.0449839 9.44179 0.00601578C8.72704 0.0540161 8.30404 0.141016 7.30654 0.456017C6.64879 0.663766 5.28679 1.00877 3.23404 1.48877H0.987788H0.988538ZM2.26429 8.11202C2.26409 8.17912 2.27714 8.2456 2.30268 8.30765C2.32822 8.3697 2.36575 8.42609 2.41313 8.47361C2.46051 8.52113 2.5168 8.55883 2.57877 8.58455C2.64075 8.61028 2.70719 8.62352 2.77429 8.62352C2.84126 8.62332 2.90754 8.60993 2.96934 8.58412C3.03114 8.55831 3.08726 8.52058 3.13447 8.47308C3.18169 8.42558 3.21909 8.36925 3.24454 8.3073C3.26999 8.24535 3.28299 8.17899 3.28279 8.11202V2.35352C3.28289 2.28654 3.26979 2.2202 3.24425 2.15829C3.21872 2.09638 3.18123 2.0401 3.13394 1.99267C3.08665 1.94524 3.03049 1.90759 2.96865 1.88187C2.90681 1.85615 2.84051 1.84286 2.77354 1.84277C2.70656 1.84286 2.64026 1.85615 2.57843 1.88187C2.51659 1.90759 2.46042 1.94524 2.41313 1.99267C2.36585 2.0401 2.32836 2.09638 2.30282 2.15829C2.27728 2.2202 2.26419 2.28654 2.26429 2.35352V8.11202Z" fill="#808080"/>
</svg>
