<svg width="15" height="14" viewBox="0 0 15 14" fill="none" xmlns="http://www.w3.org/2000/svg">
<path d="M13.149 2.356L13.1484 2.35545C12.8095 2.02583 12.4097 1.76361 11.9705 1.5833L11.9696 1.58293C11.5139 1.39509 11.0249 1.29887 10.5311 1.3L10.5295 1.3C9.83464 1.3 9.15837 1.48874 8.57168 1.84386L8.57166 1.84388C8.4313 1.92883 8.29851 2.0218 8.17303 2.12279L7.73415 2.476L7.29527 2.12279C7.16979 2.0218 7.037 1.92883 6.89663 1.84388L6.89661 1.84386C6.30993 1.48874 5.63366 1.3 4.93883 1.3C4.43728 1.3 3.95462 1.39503 3.49871 1.58293L3.49796 1.58324C3.05699 1.76439 2.6606 2.02432 2.31966 2.35566L2.3187 2.35659L2.3187 2.35659C1.98111 2.68341 1.71174 3.07249 1.52557 3.50163L13.149 2.356ZM13.149 2.356C13.4865 2.6835 13.756 3.07284 13.9429 3.5021C14.1365 3.94862 14.2347 4.42033 14.2333 4.90643V4.90843C14.2333 5.36256 14.1399 5.8512 13.9418 6.36516L13.9412 6.36675M13.149 2.356L13.9412 6.36675M4.37988 10.1131L4.37995 10.1132C5.12906 10.7996 5.87729 11.3823 6.44748 11.7988C6.73204 12.0066 6.97087 12.1721 7.14149 12.2874C7.22678 12.345 7.29482 12.3899 7.34278 12.4212C7.39359 12.4543 7.41705 12.469 7.41553 12.4681L7.42662 12.4748L7.42655 12.4749L7.73332 12.6701L8.04008 12.4749L8.04022 12.4748C8.09141 12.4423 9.58223 11.4902 11.0868 10.1131H4.37988ZM4.37988 10.1131C3.47528 9.28447 2.76336 8.48186 2.25505 7.72993M4.37988 10.1131L2.25505 7.72993M13.9412 6.36675C13.7771 6.79542 13.5328 7.25422 13.2114 7.73027M13.9412 6.36675L13.2114 7.73027M2.25505 7.72993C1.93467 7.25536 1.69124 6.79604 1.52486 6.36516L2.25505 7.72993ZM13.2114 7.73027C12.7031 8.48205 11.9913 9.28448 11.087 10.1129L13.2114 7.73027ZM1.23333 4.90843C1.23333 4.42081 1.33184 3.94831 1.52554 3.50168L1.52472 6.36481C1.32672 5.85098 1.23333 5.36246 1.23333 4.90843Z" stroke="#ECECEC" stroke-width="1.4"/>
</svg>
