<svg width="17" height="15" viewBox="0 0 17 15" fill="none" xmlns="http://www.w3.org/2000/svg">
<path d="M15.7022 3.36901C15.4578 2.80757 15.1055 2.29881 14.6648 1.87119C14.2239 1.4423 13.704 1.10146 13.1334 0.867216C12.5418 0.623356 11.9072 0.498534 11.2665 0.499997C10.3677 0.499997 9.49081 0.744207 8.72875 1.20549C8.54643 1.31584 8.37324 1.43704 8.20915 1.56909C8.04507 1.43704 7.87188 1.31584 7.68956 1.20549C6.9275 0.744207 6.05057 0.499997 5.15177 0.499997C4.50456 0.499997 3.87741 0.623007 3.28489 0.867216C2.71243 1.10238 2.19649 1.44066 1.75347 1.87119C1.31226 2.29832 0.95982 2.80721 0.716108 3.36901C0.462694 3.9533 0.333252 4.57377 0.333252 5.21234C0.333252 5.81472 0.457225 6.44243 0.703346 7.08099C0.90936 7.61463 1.20471 8.16817 1.58209 8.72714C2.18008 9.61172 3.00231 10.5343 4.02326 11.4695C5.71512 13.0198 7.39057 14.0907 7.46167 14.1341L7.89375 14.4091C8.08518 14.5303 8.3313 14.5303 8.52273 14.4091L8.95481 14.1341C9.02592 14.0889 10.6995 13.0198 12.3932 11.4695C13.4142 10.5343 14.2364 9.61172 14.8344 8.72714C15.2118 8.16817 15.5089 7.61463 15.7131 7.08099C15.9593 6.44243 16.0832 5.81472 16.0832 5.21234C16.0851 4.57377 15.9556 3.9533 15.7022 3.36901Z" fill="#FF6F6F"/>
</svg>
