<svg width="15" height="15" viewBox="0 0 15 15" fill="none" xmlns="http://www.w3.org/2000/svg">
<path d="M1.02004 7.12123V12.489H3.29254L3.40729 12.5025C5.51704 12.9945 6.91504 13.3492 7.61179 13.569C8.53729 13.8607 8.88229 13.932 9.51004 13.974C9.97954 14.0062 10.5128 13.8255 10.7558 13.578C10.89 13.4415 10.9905 13.161 11.0303 12.726C11.0385 12.6348 11.0711 12.5474 11.1247 12.4732C11.1783 12.3989 11.2508 12.3403 11.3348 12.3037C11.5215 12.2227 11.6768 12.0907 11.8065 11.8987C11.9265 11.7232 12.0045 11.3962 12.0188 10.923C12.0213 10.836 12.046 10.7511 12.0905 10.6762C12.1349 10.6014 12.1978 10.5392 12.273 10.4955C12.7095 10.2427 12.9255 9.95773 12.9705 9.62323C13.02 9.25348 12.9 8.83723 12.5858 8.36323C12.5121 8.25207 12.4846 8.11653 12.5092 7.98543C12.5339 7.85433 12.6087 7.73802 12.7178 7.66123C13.0185 7.44973 13.1835 7.15573 13.2248 6.73873C13.2908 6.07423 12.867 5.58298 11.9078 5.48473C11.0534 5.40024 10.1908 5.47216 9.36229 5.69698C9.2683 5.72155 9.16925 5.71875 9.0768 5.68893C8.98434 5.65912 8.90232 5.60351 8.8404 5.52866C8.77847 5.45381 8.73921 5.36284 8.72723 5.26643C8.71525 5.17003 8.73106 5.07221 8.77279 4.98448C9.14779 4.19098 9.35629 3.53623 9.40504 3.02923C9.46879 2.35648 9.31354 1.86898 8.95054 1.46698C8.67529 1.16248 8.23504 0.988483 8.07004 1.02448C7.85254 1.07098 7.71079 1.19698 7.52629 1.63798C7.41754 1.89898 7.36504 2.12098 7.27504 2.63923C7.18879 3.13123 7.14154 3.35323 7.04329 3.64423C6.74704 4.52623 6.02029 5.44048 5.04454 6.07123C4.36068 6.51277 3.61954 6.85849 2.84179 7.09873C2.7932 7.11371 2.74263 7.1213 2.69179 7.12123H1.02004ZM0.988538 13.5112C0.746288 13.518 0.528788 13.464 0.346538 13.3365C0.114038 13.1737 0.00453833 12.9172 0.00228833 12.6217L0.00453833 7.12948C-0.0209617 6.83698 0.0652883 6.56848 0.269288 6.36898C0.460538 6.18148 0.710288 6.09298 0.974288 6.09898H2.61304C3.27593 5.88776 3.90793 5.58967 4.49254 5.21248C5.27854 4.70398 5.85754 3.97498 6.07879 3.31798C6.15454 3.09148 6.19504 2.90398 6.27154 2.46298C6.37504 1.87123 6.43954 1.59598 6.58804 1.24198C6.89554 0.505483 7.29904 0.145483 7.85554 0.0247333C8.40304 -0.0937667 9.20029 0.221983 9.70429 0.779983C10.263 1.39798 10.5098 2.17123 10.4183 3.12673C10.3793 3.53773 10.2653 3.99748 10.0778 4.50973C10.7181 4.41642 11.3675 4.40231 12.0113 4.46773C13.5165 4.62148 14.3618 5.60173 14.2388 6.84073C14.1848 7.37473 13.9913 7.82848 13.662 8.18473C13.9388 8.71798 14.049 9.24523 13.98 9.75973C13.9005 10.3522 13.5705 10.8457 13.0215 11.229C12.9788 11.7487 12.8595 12.1635 12.648 12.474C12.4814 12.7248 12.264 12.9379 12.0098 13.0995C11.9288 13.6125 11.7585 14.0137 11.4803 14.2957C11.019 14.7652 10.1948 15.045 9.44179 14.994C8.72704 14.946 8.30404 14.859 7.30654 14.544C6.64879 14.3362 5.28679 13.9912 3.23404 13.5112H0.987788H0.988538ZM2.26429 6.88798C2.26409 6.82088 2.27714 6.7544 2.30268 6.69235C2.32822 6.6303 2.36575 6.57391 2.41313 6.52639C2.46051 6.47887 2.5168 6.44117 2.57877 6.41545C2.64075 6.38972 2.70719 6.37648 2.77429 6.37648C2.84126 6.37668 2.90754 6.39007 2.96934 6.41588C3.03114 6.44169 3.08726 6.47942 3.13447 6.52692C3.18169 6.57442 3.21909 6.63075 3.24454 6.6927C3.26999 6.75465 3.28299 6.82101 3.28279 6.88798V12.6465C3.28289 12.7135 3.26979 12.7798 3.24425 12.8417C3.21872 12.9036 3.18123 12.9599 3.13394 13.0073C3.08665 13.0548 3.03049 13.0924 2.96865 13.1181C2.90681 13.1438 2.84051 13.1571 2.77354 13.1572C2.70656 13.1571 2.64026 13.1438 2.57843 13.1181C2.51659 13.0924 2.46042 13.0548 2.41313 13.0073C2.36585 12.9599 2.32836 12.9036 2.30282 12.8417C2.27728 12.7798 2.26419 12.7135 2.26429 12.6465V6.88798Z" fill="#66AF5A"/>
</svg>
