<svg width="15" height="15" viewBox="0 0 15 15" fill="none" xmlns="http://www.w3.org/2000/svg">
<g clip-path="url(#clip0_7_140)">
<path d="M1.02004 7.12126V12.489H3.29254L3.40729 12.5025C5.51704 12.9945 6.91504 13.3493 7.61179 13.569C8.53729 13.8608 8.88229 13.932 9.51004 13.974C9.97954 14.0063 10.5128 13.8255 10.7558 13.578C10.89 13.4415 10.9905 13.161 11.0303 12.726C11.0385 12.6348 11.0711 12.5475 11.1247 12.4732C11.1783 12.3989 11.2508 12.3404 11.3348 12.3038C11.5215 12.2228 11.6768 12.0908 11.8065 11.8988C11.9265 11.7233 12.0045 11.3963 12.0188 10.923C12.0213 10.836 12.046 10.7511 12.0905 10.6763C12.1349 10.6015 12.1978 10.5393 12.273 10.4955C12.7095 10.2428 12.9255 9.95776 12.9705 9.62326C13.02 9.25351 12.9 8.83726 12.5858 8.36326C12.5121 8.2521 12.4846 8.11656 12.5092 7.98546C12.5339 7.85436 12.6087 7.73805 12.7178 7.66126C13.0185 7.44976 13.1835 7.15576 13.2248 6.73876C13.2908 6.07426 12.867 5.58301 11.9078 5.48476C11.0534 5.40027 10.1908 5.47219 9.36229 5.69701C9.2683 5.72158 9.16925 5.71878 9.0768 5.68896C8.98434 5.65915 8.90232 5.60354 8.8404 5.52869C8.77847 5.45385 8.73921 5.36287 8.72723 5.26646C8.71525 5.17006 8.73106 5.07224 8.77279 4.98451C9.14779 4.19101 9.35629 3.53626 9.40504 3.02926C9.46879 2.35651 9.31354 1.86901 8.95054 1.46701C8.67529 1.16251 8.23504 0.988514 8.07004 1.02451C7.85254 1.07101 7.71079 1.19701 7.52629 1.63801C7.41754 1.89901 7.36504 2.12101 7.27504 2.63926C7.18879 3.13126 7.14154 3.35326 7.04329 3.64426C6.74704 4.52626 6.02029 5.44051 5.04454 6.07126C4.36068 6.5128 3.61954 6.85852 2.84179 7.09876C2.7932 7.11374 2.74263 7.12133 2.69179 7.12126H1.02004ZM0.988538 13.5113C0.746288 13.518 0.528788 13.464 0.346538 13.3365C0.114038 13.1738 0.00453833 12.9173 0.00228833 12.6218L0.00453833 7.12951C-0.0209617 6.83701 0.0652883 6.56851 0.269288 6.36901C0.460538 6.18151 0.710288 6.09301 0.974288 6.09901H2.61304C3.27593 5.88779 3.90793 5.5897 4.49254 5.21251C5.27854 4.70401 5.85754 3.97501 6.07879 3.31801C6.15454 3.09151 6.19504 2.90401 6.27154 2.46301C6.37504 1.87126 6.43954 1.59601 6.58804 1.24201C6.89554 0.505514 7.29904 0.145514 7.85554 0.0247638C8.40304 -0.0937362 9.20029 0.222014 9.70429 0.780014C10.263 1.39801 10.5098 2.17126 10.4183 3.12676C10.3793 3.53776 10.2653 3.99751 10.0778 4.50976C10.7181 4.41645 11.3675 4.40234 12.0113 4.46776C13.5165 4.62151 14.3618 5.60176 14.2388 6.84076C14.1848 7.37476 13.9913 7.82851 13.662 8.18476C13.9388 8.71801 14.049 9.24526 13.98 9.75976C13.9005 10.3523 13.5705 10.8458 13.0215 11.229C12.9788 11.7488 12.8595 12.1635 12.648 12.474C12.4814 12.7249 12.264 12.938 12.0098 13.0995C11.9288 13.6125 11.7585 14.0138 11.4803 14.2958C11.019 14.7653 10.1948 15.045 9.44179 14.994C8.72704 14.946 8.30404 14.859 7.30654 14.544C6.64879 14.3363 5.28679 13.9913 3.23404 13.5113H0.987788H0.988538ZM2.26429 6.88801C2.26409 6.82091 2.27714 6.75443 2.30268 6.69238C2.32822 6.63034 2.36575 6.57394 2.41313 6.52642C2.46051 6.4789 2.5168 6.4412 2.57877 6.41548C2.64075 6.38975 2.70719 6.37651 2.77429 6.37651C2.84126 6.37671 2.90754 6.3901 2.96934 6.41591C3.03114 6.44172 3.08726 6.47945 3.13447 6.52695C3.18169 6.57445 3.21909 6.63078 3.24454 6.69273C3.26999 6.75468 3.28299 6.82104 3.28279 6.88801V12.6465C3.28289 12.7135 3.26979 12.7798 3.24425 12.8417C3.21872 12.9037 3.18123 12.9599 3.13394 13.0074C3.08665 13.0548 3.03049 13.0924 2.96865 13.1182C2.90681 13.1439 2.84051 13.1572 2.77354 13.1573C2.70656 13.1572 2.64026 13.1439 2.57843 13.1182C2.51659 13.0924 2.46042 13.0548 2.41313 13.0074C2.36585 12.9599 2.32836 12.9037 2.30282 12.8417C2.27728 12.7798 2.26419 12.7135 2.26429 12.6465V6.88801Z" fill="#808080"/>
</g>
<defs>
<clipPath id="clip0_7_140">
<rect width="15" height="15" fill="white"/>
</clipPath>
</defs>
</svg>
