<svg width="15" height="15" viewBox="0 0 15 15" fill="none" xmlns="http://www.w3.org/2000/svg">
<path d="M3.125 1.875H11.25C11.7473 1.875 12.2242 2.07254 12.5758 2.42417C12.9275 2.77581 13.125 3.25272 13.125 3.75V9.375C13.125 9.87228 12.9275 10.3492 12.5758 10.7008C12.2242 11.0525 11.7473 11.25 11.25 11.25H8.38375L6.06687 13.5669C5.97947 13.6543 5.86811 13.7138 5.74689 13.7379C5.62567 13.762 5.50003 13.7496 5.38584 13.7023C5.27165 13.655 5.17405 13.5749 5.10537 13.4722C5.0367 13.3694 5.00003 13.2486 5 13.125V11.25H3.125C2.62772 11.25 2.15081 11.0525 1.79917 10.7008C1.44754 10.3492 1.25 9.87228 1.25 9.375V3.75C1.25 3.25272 1.44754 2.77581 1.79917 2.42417C2.15081 2.07254 2.62772 1.875 3.125 1.875ZM11.25 2.5H3.125C2.79348 2.5 2.47554 2.6317 2.24112 2.86612C2.0067 3.10054 1.875 3.41848 1.875 3.75V9.375C1.875 9.70652 2.0067 10.0245 2.24112 10.2589C2.47554 10.4933 2.79348 10.625 3.125 10.625H5.625V13.125L8.125 10.625H11.25C11.5815 10.625 11.8995 10.4933 12.1339 10.2589C12.3683 10.0245 12.5 9.70652 12.5 9.375V3.75C12.5 3.41848 12.3683 3.10054 12.1339 2.86612C11.8995 2.6317 11.5815 2.5 11.25 2.5ZM3.125 4.375H11.25V5H3.125V4.375ZM3.125 6.25H10.625V6.875H3.125V6.25ZM3.125 8.125H8.125V8.75H3.125V8.125Z" fill="#808080"/>
</svg>
