<svg width="15" height="15" viewBox="0 0 15 15" fill="none" xmlns="http://www.w3.org/2000/svg">
<path d="M14.0083 7.30418C12.6042 4.70835 10.1417 3.13751 7.41667 3.13751C4.69167 3.13751 2.22501 4.70835 0.833341 7.30418L0.716675 7.50001L0.825008 7.70001C2.22917 10.2958 4.69167 11.8667 7.41667 11.8667C10.1417 11.8667 12.6083 10.3167 14.0083 7.70001L14.1167 7.50001L14.0083 7.30418ZM7.41667 11.0125C5.07084 11.0125 2.91667 9.70418 1.66667 7.50001C2.91667 5.29585 5.07084 3.98751 7.41667 3.98751C9.76251 3.98751 11.8917 5.30001 13.1625 7.50001C11.8917 9.70418 9.75834 11.0125 7.41667 11.0125Z" fill="#808080"/>
<path d="M7.53749 4.65416C6.97254 4.65828 6.42148 4.82973 5.95391 5.14686C5.48635 5.46399 5.12325 5.91256 4.91047 6.43593C4.6977 6.95929 4.64479 7.53398 4.75844 8.0874C4.87209 8.64081 5.14719 9.14814 5.549 9.5453C5.95081 9.94245 6.46131 10.2116 7.01601 10.3188C7.57071 10.426 8.14474 10.3664 8.6656 10.1476C9.18645 9.92872 9.63077 9.56042 9.94243 9.0892C10.2541 8.61797 10.4191 8.06495 10.4167 7.49999C10.415 7.12392 10.3392 6.75188 10.1935 6.40517C10.0478 6.05846 9.83516 5.74391 9.56769 5.47954C9.30022 5.21517 8.98322 5.00618 8.63484 4.86454C8.28645 4.72291 7.91355 4.65141 7.53749 4.65416ZM7.53749 9.53749C7.13843 9.53338 6.74948 9.41144 6.41949 9.187C6.08951 8.96255 5.8332 8.64561 5.68275 8.27597C5.53231 7.90633 5.49444 7.50048 5.57391 7.10939C5.65337 6.7183 5.84662 6.35941 6.12939 6.07779C6.41216 5.79617 6.77184 5.60439 7.16325 5.52652C7.55466 5.44865 7.96035 5.48818 8.32938 5.64013C8.6984 5.79208 9.0143 6.04968 9.23739 6.38058C9.46049 6.71148 9.58083 7.10092 9.58332 7.49999C9.58443 7.76858 9.53221 8.03471 9.42969 8.28295C9.32717 8.5312 9.17638 8.75663 8.98608 8.94616C8.79577 9.13569 8.56973 9.28555 8.32107 9.38706C8.0724 9.48857 7.80606 9.5397 7.53749 9.53749Z" fill="#808080"/>
</svg>
