<svg width="11" height="8" viewBox="0 0 11 8" fill="none" xmlns="http://www.w3.org/2000/svg">
<path d="M5.94527 1.03088C5.89558 0.969816 5.82908 0.919884 5.75152 0.885389C5.67396 0.850894 5.58764 0.83287 5.50002 0.83287C5.41239 0.83287 5.32608 0.850894 5.24852 0.885389C5.17095 0.919884 5.10446 0.969816 5.05477 1.03088L0.17977 6.98922C0.123342 7.05794 0.090251 7.13844 0.0840931 7.22196C0.0779343 7.30548 0.0989447 7.38883 0.144839 7.46295C0.190735 7.53708 0.259761 7.59915 0.344417 7.64241C0.429073 7.68567 0.526122 7.70847 0.62502 7.70834L10.375 7.70834C10.4737 7.708 10.5704 7.6849 10.6547 7.64153C10.739 7.59817 10.8078 7.53618 10.8535 7.46222C10.8993 7.38827 10.9204 7.30515 10.9146 7.22181C10.9087 7.13847 10.8761 7.05805 10.8203 6.98922L5.94527 1.03088Z" fill="black"/>
</svg>
