<svg width="11" height="8" viewBox="0 0 11 8" fill="none" xmlns="http://www.w3.org/2000/svg">
<path d="M5.05476 6.96912C5.10445 7.03018 5.17095 7.08012 5.24851 7.11461C5.32607 7.14911 5.41239 7.16713 5.50001 7.16713C5.58764 7.16713 5.67395 7.14911 5.75151 7.11461C5.82908 7.08012 5.89557 7.03018 5.94526 6.96912L10.8203 1.01078C10.8767 0.942058 10.9098 0.861563 10.9159 0.778043C10.9221 0.694522 10.9011 0.611171 10.8552 0.537045C10.8093 0.462919 10.7403 0.400854 10.6556 0.357592C10.571 0.314329 10.4739 0.291525 10.375 0.291657H0.625011C0.526343 0.292002 0.429653 0.315099 0.345338 0.358465C0.261024 0.401831 0.192276 0.463824 0.146486 0.537779C0.100697 0.611733 0.0795994 0.694851 0.0854624 0.778192C0.0913253 0.861534 0.123927 0.941946 0.179761 1.01078L5.05476 6.96912Z" fill="black"/>
</svg>
