<svg width="25" height="24" viewBox="0 0 25 24" fill="none" xmlns="http://www.w3.org/2000/svg">
<path fill-rule="evenodd" clip-rule="evenodd" d="M0 12.3141C0 6.0968 5.72375 0.845184 12.5 0.845184C19.2763 0.845184 25 6.0968 25 12.3141C25 15.9727 23.01 19.2849 20 21.4021V21.4892H19.8725C17.7875 22.9171 15.2338 23.783 12.5 23.783C9.76625 23.783 7.2125 22.9171 5.1275 21.4892H5V21.4021C1.99 19.2849 0 15.9715 0 12.3141ZM8.90433 18.3192C8.23942 18.81 7.77671 19.4941 7.5925 20.2586C9.0525 21.0351 10.73 21.4892 12.5 21.4892C14.27 21.4892 15.9475 21.0351 17.4075 20.2586C17.2231 19.4942 16.7603 18.8102 16.0954 18.3195C15.4306 17.8287 14.6033 17.5604 13.75 17.5588H11.25C10.3966 17.5602 9.56924 17.8284 8.90433 18.3192ZM17.2097 16.2269C18.2347 16.8528 19.0357 17.7422 19.5125 18.7837C21.3463 17.1104 22.5 14.8097 22.5 12.3141C22.5 7.34003 17.9212 3.13897 12.5 3.13897C7.07875 3.13897 2.5 7.34003 2.5 12.3141C2.5 14.8097 3.65375 17.1104 5.4875 18.7837C5.96431 17.7422 6.76534 16.8528 7.79034 16.2269C8.81533 15.6011 10.0188 15.2665 11.25 15.2651H13.75C14.9812 15.2665 16.1847 15.6011 17.2097 16.2269ZM7.5 10.0203C7.5 7.40541 9.65 5.43275 12.5 5.43275C15.35 5.43275 17.5 7.40541 17.5 10.0203C17.5 12.6352 15.35 14.6079 12.5 14.6079C9.65 14.6079 7.5 12.6352 7.5 10.0203ZM10 10.0203C10 11.3714 11.0275 12.3141 12.5 12.3141C13.9725 12.3141 15 11.3714 15 10.0203C15 8.66928 13.9725 7.72654 12.5 7.72654C11.0275 7.72654 10 8.66928 10 10.0203Z" fill="#9B9B9B"/>
</svg>
