<svg width="107" height="15" viewBox="0 0 107 15" fill="none" xmlns="http://www.w3.org/2000/svg">
<path d="M3.04261 0.909091L6.44957 11.2131H6.58381L9.98438 0.909091H12.5923L7.97727 14H5.04972L0.441051 0.909091H3.04261ZM16.688 0.909091V14H14.3166V0.909091H16.688ZM19.256 14V0.909091H24.1651C25.1708 0.909091 26.0146 1.09659 26.6964 1.47159C27.3825 1.84659 27.9002 2.36222 28.2496 3.01847C28.6033 3.67045 28.7802 4.41193 28.7802 5.2429C28.7802 6.08239 28.6033 6.82812 28.2496 7.48011C27.896 8.1321 27.3739 8.6456 26.6836 9.0206C25.9933 9.39134 25.1431 9.5767 24.1332 9.5767H20.8796V7.62713H23.8136C24.4016 7.62713 24.8832 7.52486 25.2582 7.32031C25.6332 7.11577 25.9102 6.83452 26.0891 6.47656C26.2724 6.11861 26.364 5.70739 26.364 5.2429C26.364 4.77841 26.2724 4.36932 26.0891 4.01562C25.9102 3.66193 25.631 3.38707 25.2518 3.19105C24.8768 2.99077 24.3931 2.89062 23.8008 2.89062H21.6275V14H19.256ZM35.3049 14V0.909091H40.214C41.2196 0.909091 42.0634 1.08381 42.7452 1.43324C43.4313 1.78267 43.949 2.27273 44.2985 2.90341C44.6522 3.52983 44.829 4.26065 44.829 5.09588C44.829 5.93537 44.65 6.66406 44.2921 7.28196C43.9384 7.8956 43.4164 8.37074 42.726 8.70739C42.0357 9.03977 41.1877 9.20597 40.182 9.20597H36.6855V7.23722H39.8624C40.4505 7.23722 40.932 7.15625 41.307 6.99432C41.682 6.82812 41.959 6.58736 42.138 6.27202C42.3212 5.95241 42.4128 5.56037 42.4128 5.09588C42.4128 4.63139 42.3212 4.23509 42.138 3.90696C41.9547 3.57457 41.6756 3.32315 41.3006 3.1527C40.9256 2.97798 40.4419 2.89062 39.8496 2.89062H37.6763V14H35.3049ZM42.0676 8.06818L45.3084 14H42.6621L39.4789 8.06818H42.0676ZM51.1156 14.1918C50.1312 14.1918 49.2811 13.9872 48.5652 13.5781C47.8535 13.1648 47.3059 12.581 46.9224 11.8267C46.5389 11.0682 46.3471 10.1754 46.3471 9.14844C46.3471 8.13849 46.5389 7.25213 46.9224 6.48935C47.3102 5.7223 47.8514 5.12571 48.546 4.69957C49.2406 4.26918 50.0566 4.05398 50.9941 4.05398C51.5993 4.05398 52.1703 4.15199 52.7072 4.34801C53.2484 4.53977 53.7257 4.83807 54.139 5.2429C54.5566 5.64773 54.8848 6.16335 55.1234 6.78977C55.362 7.41193 55.4814 8.15341 55.4814 9.0142V9.72372H47.4338V8.16406H53.2633C53.2591 7.72088 53.1632 7.3267 52.9757 6.98153C52.7882 6.6321 52.5261 6.35724 52.1895 6.15696C51.8571 5.95668 51.4693 5.85653 51.0261 5.85653C50.5531 5.85653 50.1376 5.97159 49.7797 6.2017C49.4217 6.42756 49.1426 6.72585 48.9423 7.09659C48.7463 7.46307 48.6461 7.86577 48.6419 8.30469V9.66619C48.6419 10.2372 48.7463 10.7273 48.9551 11.1364C49.1639 11.5412 49.4558 11.8523 49.8308 12.0696C50.2058 12.2827 50.6447 12.3892 51.1476 12.3892C51.4842 12.3892 51.7889 12.3423 52.0616 12.2486C52.3343 12.1506 52.5708 12.0078 52.7711 11.8203C52.9714 11.6328 53.1227 11.4006 53.225 11.1236L55.3855 11.3665C55.2491 11.9375 54.9892 12.4361 54.6056 12.8622C54.2264 13.2841 53.7406 13.6122 53.1483 13.8466C52.5559 14.0767 51.8784 14.1918 51.1156 14.1918ZM59.5483 10.919L59.5419 8.12571H59.9126L63.4411 4.18182H66.1449L61.8047 9.0142H61.3253L59.5483 10.919ZM57.4389 14V0.909091H59.7528V14H57.4389ZM63.6009 14L60.4048 9.53196L61.9645 7.90199L66.3686 14H63.6009ZM70.0009 0.909091V14H67.687V0.909091H70.0009ZM75.2056 14.1982C74.5835 14.1982 74.0231 14.0874 73.5245 13.8658C73.0302 13.6399 72.6381 13.3075 72.3484 12.8686C72.0629 12.4297 71.9201 11.8885 71.9201 11.245C71.9201 10.6911 72.0224 10.233 72.2269 9.87074C72.4315 9.50852 72.7106 9.21875 73.0643 9.00142C73.418 8.78409 73.8164 8.62003 74.2596 8.50923C74.707 8.39418 75.1694 8.31108 75.6467 8.25994C76.2219 8.20028 76.6886 8.14702 77.0465 8.10014C77.4045 8.04901 77.6644 7.9723 77.8263 7.87003C77.9925 7.76349 78.0756 7.59943 78.0756 7.37784V7.33949C78.0756 6.85795 77.9329 6.48509 77.6474 6.22088C77.3619 5.95668 76.9506 5.82457 76.4137 5.82457C75.8469 5.82457 75.3974 5.94815 75.065 6.19531C74.7369 6.44247 74.5153 6.73437 74.4002 7.07102L72.2397 6.7642C72.4102 6.16761 72.6914 5.66903 73.0835 5.26847C73.4755 4.86364 73.9549 4.56108 74.5217 4.3608C75.0884 4.15625 75.7148 4.05398 76.4009 4.05398C76.8739 4.05398 77.3448 4.10938 77.8136 4.22017C78.2823 4.33097 78.7106 4.5142 79.0984 4.76989C79.4862 5.02131 79.7972 5.36435 80.0316 5.79901C80.2702 6.23366 80.3896 6.77699 80.3896 7.42898V14H78.1651V12.6513H78.0884C77.9478 12.924 77.7496 13.1797 77.494 13.4183C77.2425 13.6527 76.9251 13.8423 76.5415 13.9872C76.1623 14.1278 75.717 14.1982 75.2056 14.1982ZM75.8065 12.4979C76.271 12.4979 76.6737 12.4062 77.0146 12.223C77.3555 12.0355 77.6175 11.7884 77.8008 11.4815C77.9883 11.1747 78.082 10.8402 78.082 10.478V9.32102C78.0096 9.38068 77.886 9.43608 77.7113 9.48722C77.5408 9.53835 77.3491 9.5831 77.136 9.62145C76.9229 9.6598 76.712 9.69389 76.5032 9.72372C76.2944 9.75355 76.1133 9.77912 75.9599 9.80043C75.6147 9.8473 75.3058 9.92401 75.033 10.0305C74.7603 10.1371 74.5451 10.2862 74.3874 10.478C74.2298 10.6655 74.1509 10.9084 74.1509 11.2067C74.1509 11.6328 74.3065 11.9545 74.6175 12.1719C74.9286 12.3892 75.3249 12.4979 75.8065 12.4979ZM82.7163 14V4.18182H84.9279V5.85014H85.043C85.2475 5.28764 85.5863 4.84872 86.0593 4.53338C86.5323 4.21378 87.0969 4.05398 87.7532 4.05398C88.418 4.05398 88.9783 4.21591 89.4343 4.53977C89.8945 4.85937 90.2184 5.29616 90.4059 5.85014H90.5082C90.7255 5.30469 91.092 4.87003 91.6076 4.54616C92.1275 4.21804 92.7433 4.05398 93.4549 4.05398C94.3583 4.05398 95.0955 4.33949 95.6665 4.91051C96.2376 5.48153 96.5231 6.31463 96.5231 7.4098V14H94.2028V7.76776C94.2028 7.15838 94.0408 6.71307 93.717 6.43182C93.3931 6.14631 92.9968 6.00355 92.5281 6.00355C91.9698 6.00355 91.533 6.17827 91.2177 6.5277C90.9066 6.87287 90.7511 7.32244 90.7511 7.87642V14H88.4819V7.67188C88.4819 7.16477 88.3285 6.75994 88.0217 6.45739C87.7191 6.15483 87.3228 6.00355 86.8327 6.00355C86.5004 6.00355 86.1978 6.08878 85.9251 6.25923C85.6523 6.42543 85.435 6.66193 85.2731 6.96875C85.1112 7.27131 85.0302 7.625 85.0302 8.02983V14H82.7163ZM101.696 14.1982C101.074 14.1982 100.513 14.0874 100.015 13.8658C99.5204 13.6399 99.1284 13.3075 98.8386 12.8686C98.5531 12.4297 98.4103 11.8885 98.4103 11.245C98.4103 10.6911 98.5126 10.233 98.7172 9.87074C98.9217 9.50852 99.2008 9.21875 99.5545 9.00142C99.9082 8.78409 100.307 8.62003 100.75 8.50923C101.197 8.39418 101.66 8.31108 102.137 8.25994C102.712 8.20028 103.179 8.14702 103.537 8.10014C103.895 8.04901 104.155 7.9723 104.317 7.87003C104.483 7.76349 104.566 7.59943 104.566 7.37784V7.33949C104.566 6.85795 104.423 6.48509 104.138 6.22088C103.852 5.95668 103.441 5.82457 102.904 5.82457C102.337 5.82457 101.888 5.94815 101.555 6.19531C101.227 6.44247 101.006 6.73437 100.89 7.07102L98.7299 6.7642C98.9004 6.16761 99.1816 5.66903 99.5737 5.26847C99.9657 4.86364 100.445 4.56108 101.012 4.3608C101.579 4.15625 102.205 4.05398 102.891 4.05398C103.364 4.05398 103.835 4.10938 104.304 4.22017C104.773 4.33097 105.201 4.5142 105.589 4.76989C105.976 5.02131 106.287 5.36435 106.522 5.79901C106.76 6.23366 106.88 6.77699 106.88 7.42898V14H104.655V12.6513H104.579C104.438 12.924 104.24 13.1797 103.984 13.4183C103.733 13.6527 103.415 13.8423 103.032 13.9872C102.653 14.1278 102.207 14.1982 101.696 14.1982ZM102.297 12.4979C102.761 12.4979 103.164 12.4062 103.505 12.223C103.846 12.0355 104.108 11.7884 104.291 11.4815C104.479 11.1747 104.572 10.8402 104.572 10.478V9.32102C104.5 9.38068 104.376 9.43608 104.202 9.48722C104.031 9.53835 103.839 9.5831 103.626 9.62145C103.413 9.6598 103.202 9.69389 102.993 9.72372C102.785 9.75355 102.604 9.77912 102.45 9.80043C102.105 9.8473 101.796 9.92401 101.523 10.0305C101.251 10.1371 101.035 10.2862 100.878 10.478C100.72 10.6655 100.641 10.9084 100.641 11.2067C100.641 11.6328 100.797 11.9545 101.108 12.1719C101.419 12.3892 101.815 12.4979 102.297 12.4979Z" fill="black"/>
</svg>
